<?xml version="1.0" standalone="no"?>
<!DOCTYPE svg PUBLIC "-//W3C//DTD SVG 20010904//EN"
 "http://www.w3.org/TR/2001/REC-SVG-20010904/DTD/svg10.dtd">
<svg version="1.0" xmlns="http://www.w3.org/2000/svg"
 width="312.000000pt" height="240.000000pt" viewBox="0 0 312.000000 240.000000"
 preserveAspectRatio="xMidYMid meet">

<g transform="translate(0.000000,240.000000) scale(0.100000,-0.100000)"
fill="#000000" stroke="none">
<path d="M942 2358 l-72 -38 34 -14 c60 -25 63 -44 58 -288 l-4 -218 -41 -22
c-22 -13 -46 -33 -54 -44 -14 -21 -13 -22 29 -17 34 4 54 -1 99 -25 l57 -30
53 60 c29 33 43 56 32 50 -15 -8 -27 -7 -51 8 l-32 20 5 167 c3 93 7 202 10
244 5 84 -4 127 -32 162 l-18 23 -73 -38z"/>
<path d="M1579 2368 c-60 -31 -130 -48 -191 -48 -34 0 -39 -2 -32 -17 12 -30
17 -157 6 -196 l-10 -37 44 0 c40 0 104 -22 104 -36 0 -12 -73 -34 -114 -34
l-44 0 10 -37 c16 -59 5 -179 -19 -206 -34 -38 -33 -42 6 -42 24 0 48 -9 71
-27 l35 -27 69 35 c57 28 79 34 135 34 l66 0 0 134 0 134 -41 0 c-39 0 -114
24 -114 37 0 12 71 35 108 35 l39 0 -5 90 c-4 85 -3 92 22 128 32 47 32 50 1
44 -18 -3 -33 4 -58 29 l-34 34 -54 -27z m19 -96 c14 -19 17 -155 2 -181 -15
-30 -66 -46 -94 -31 -36 19 -46 52 -46 154 0 91 0 92 28 102 22 9 34 7 62 -9
19 -11 41 -27 48 -35z m-29 -267 c16 -8 31 -22 35 -30 8 -21 8 -198 0 -219
-10 -25 -62 -19 -110 12 l-44 27 0 92 0 91 33 21 c38 25 49 26 86 6z"/>
<path d="M2125 2378 c-46 -28 -152 -58 -206 -58 -48 0 -48 0 -39 -26 6 -14 10
-58 10 -99 0 -41 -4 -85 -10 -99 -9 -26 -9 -26 36 -26 39 0 104 -22 104 -35 0
-13 -65 -35 -102 -35 l-44 0 4 -105 4 -105 -31 -35 c-17 -20 -31 -37 -31 -39
0 -2 17 -3 39 -2 27 0 48 -7 74 -27 l36 -28 57 32 c46 27 71 33 133 37 l76 4
0 134 0 134 -45 0 c-46 0 -91 17 -97 35 -5 15 55 35 103 35 l39 0 -3 101 c-3
88 -1 104 16 123 35 39 36 46 2 40 -26 -6 -35 -1 -63 28 l-32 34 -30 -18z m5
-198 c0 -86 -1 -89 -29 -109 -39 -28 -62 -26 -92 5 -22 23 -24 36 -27 128 l-4
103 34 9 c29 9 39 6 76 -19 l42 -28 0 -89z m-32 -180 l33 -20 -3 -118 -3 -117
-35 -2 c-25 -2 -47 5 -75 25 l-40 28 -3 91 -3 91 33 21 c41 26 55 26 96 1z"/>
<path d="M200 1298 c-60 -17 -130 -99 -130 -153 0 -14 3 -14 29 -1 50 26 101
28 296 11 105 -9 211 -13 238 -10 l47 7 0 -331 0 -331 -32 -20 c-87 -53 -229
-70 -299 -36 -53 25 -99 74 -128 136 -50 108 -39 327 24 455 13 27 23 51 21
52 -9 9 -111 -117 -137 -168 -105 -209 -67 -474 84 -578 98 -67 244 -80 352
-32 96 42 193 167 221 286 7 28 5 28 -27 -14 -19 -25 -40 -46 -46 -49 -10 -3
-13 65 -13 316 l0 320 43 25 c37 22 97 89 97 109 0 4 -15 2 -32 -3 -46 -13
-133 -11 -283 6 -147 17 -273 18 -325 3z"/>
<path d="M1558 1221 c-76 -40 -87 -49 -80 -66 4 -11 6 -179 4 -373 l-2 -353
-35 -30 c-46 -41 -45 -59 1 -59 28 0 44 -8 71 -35 l34 -34 64 42 c35 23 62 47
61 52 -1 6 -19 19 -39 30 l-37 20 0 175 0 175 46 38 c26 20 51 37 55 37 5 0
27 -12 48 -27 l40 -28 1 -225 c0 -198 -2 -229 -17 -250 l-18 -25 29 22 c22 17
42 23 82 23 l54 0 -8 33 c-7 34 -8 52 -4 278 2 146 2 146 32 184 17 21 30 41
30 44 0 4 -18 5 -41 3 -36 -4 -44 0 -78 37 l-38 41 -103 -80 c-56 -44 -103
-80 -104 -80 -1 0 0 73 2 163 3 122 8 180 24 235 11 41 18 75 16 76 -2 2 -42
-18 -90 -43z"/>
<path d="M2824 1121 c-21 -15 -56 -34 -77 -41 -30 -9 -37 -16 -31 -29 4 -9 8
-36 8 -61 l1 -45 -47 1 -46 0 -4 -42 c-3 -37 -1 -41 14 -33 9 5 33 9 52 9 l36
0 0 -223 0 -224 -40 -32 c-22 -17 -44 -41 -50 -52 -10 -18 -9 -19 14 -13 33 8
85 -10 136 -47 l42 -30 66 62 c37 35 69 65 72 67 3 2 -7 1 -22 -3 -21 -5 -35
0 -62 20 l-36 27 0 226 0 225 50 -6 50 -6 0 40 0 40 -50 -7 -50 -7 0 69 c0 38
4 85 10 103 5 19 8 36 7 38 -2 1 -21 -10 -43 -26z"/>
<path d="M455 1024 c-38 -25 -77 -49 -85 -54 -8 -5 -11 -12 -7 -16 4 -4 13 -2
19 4 7 7 16 12 20 12 11 0 6 -440 -6 -462 -13 -28 6 -22 58 17 81 63 86 81 86
330 0 118 -3 215 -7 214 -5 0 -39 -21 -78 -45z"/>
<path d="M1172 915 c-35 -18 -93 -39 -128 -45 -62 -12 -64 -13 -56 -39 4 -14
7 -110 6 -212 l0 -186 -45 -44 -44 -43 55 -6 c61 -6 84 -16 118 -53 l24 -25
41 42 c23 23 60 57 82 75 22 18 29 27 15 19 -23 -14 -29 -13 -75 12 l-50 27
-3 204 c-2 163 0 209 12 224 13 18 14 17 30 -13 9 -17 25 -36 35 -42 46 -24
114 -3 137 41 18 36 19 34 -18 34 -27 0 -36 6 -48 32 -8 18 -17 32 -20 32 -3
0 -34 -15 -68 -34z"/>
<path d="M2165 941 c-3 -6 -28 -24 -55 -42 -28 -18 -50 -36 -50 -40 0 -4 27
-42 59 -85 l59 -78 -48 -46 c-63 -59 -90 -115 -90 -183 0 -64 25 -107 85 -149
79 -54 86 -54 159 13 l64 59 23 -40 c19 -34 72 -80 91 -80 3 0 24 25 47 55
l42 56 -30 10 c-44 15 -51 50 -51 249 0 175 0 177 25 200 33 31 32 40 -4 40
-32 0 -56 18 -66 50 -9 27 -17 25 -42 -8 -11 -15 -41 -39 -66 -52 -41 -22 -48
-23 -71 -10 -14 7 -34 30 -43 51 -18 39 -27 46 -38 30z m155 -118 c14 -9 29
-22 33 -27 11 -15 -3 -388 -15 -403 -15 -19 -68 -16 -108 6 -75 39 -102 149
-59 234 l22 41 43 -49 c73 -83 49 -43 -46 81 -49 63 -90 117 -90 119 0 2 24 1
53 -2 28 -3 68 -1 87 5 49 14 53 14 80 -5z"/>
<path d="M1751 271 c-1 -7 9 -50 21 -94 21 -75 21 -82 6 -123 -17 -48 -14 -52
18 -26 58 47 59 116 1 180 -12 13 -27 35 -33 50 -7 15 -13 21 -13 13z"/>
</g>
</svg>
