<?xml version="1.0" standalone="no"?>
<!DOCTYPE svg PUBLIC "-//W3C//DTD SVG 20010904//EN"
 "http://www.w3.org/TR/2001/REC-SVG-20010904/DTD/svg10.dtd">
<svg version="1.0" xmlns="http://www.w3.org/2000/svg"
 width="590.000000pt" height="423.000000pt" viewBox="0 0 590.000000 423.000000"
 preserveAspectRatio="xMidYMid meet">

<g transform="translate(0.000000,423.000000) scale(0.100000,-0.100000)"
fill="#000000" stroke="none">
<path d="M2150 3605 c-19 -14 -58 -35 -87 -47 -29 -12 -53 -24 -53 -28 0 -3
19 -12 42 -20 27 -10 51 -27 66 -50 24 -35 24 -37 18 -205 -3 -93 -7 -223 -7
-288 -1 -66 -4 -127 -6 -137 -3 -10 -19 -24 -36 -31 -32 -14 -107 -75 -107
-88 0 -4 26 -5 58 -3 51 4 65 0 134 -36 l77 -40 57 69 c31 38 60 69 65 69 5 0
9 5 9 11 0 8 -5 7 -15 -1 -13 -11 -23 -9 -56 6 -23 10 -44 26 -48 35 -3 10 -3
100 0 201 11 298 10 504 -2 535 -12 33 -48 73 -63 73 -6 -1 -27 -12 -46 -25z"/>
<path d="M2970 3594 c-78 -40 -198 -69 -297 -73 -9 -1 -10 -8 -3 -27 6 -14 10
-76 10 -139 0 -63 -4 -125 -10 -139 l-10 -26 63 0 c67 0 132 -24 132 -49 0
-23 -101 -54 -158 -48 -41 4 -47 2 -41 -12 4 -9 9 -75 12 -147 l4 -131 -41
-47 c-23 -26 -41 -49 -41 -52 0 -2 17 -2 38 2 45 7 79 -5 124 -45 l35 -30 92
47 c92 47 94 47 191 47 89 0 97 2 89 17 -13 23 -11 305 1 329 10 18 7 19 -53
19 -62 0 -149 31 -151 55 -2 18 97 47 152 43 43 -2 51 -1 45 12 -3 8 -8 69
-11 135 l-4 120 36 39 c43 46 48 71 12 55 -31 -15 -90 12 -113 52 -10 16 -22
28 -28 27 -5 0 -39 -16 -75 -34z m-17 -93 l58 -33 -3 -131 -3 -131 -40 -23
c-54 -30 -69 -29 -113 11 l-37 34 0 142 0 142 35 13 c42 15 33 17 103 -24z
m51 -436 c3 -9 6 -83 6 -165 0 -162 1 -160 -64 -160 -19 0 -54 14 -89 36 l-57
36 0 129 0 129 52 29 51 30 47 -24 c26 -13 50 -31 54 -40z"/>
<path d="M3730 3615 c-49 -28 -176 -73 -222 -79 -152 -19 -139 -15 -126 -39
19 -35 22 -204 5 -259 l-15 -48 61 0 c67 0 132 -25 132 -50 0 -23 -91 -51
-152 -47 -50 3 -51 3 -42 -20 5 -14 9 -82 9 -152 0 -117 -2 -129 -21 -147 -12
-10 -29 -30 -39 -45 l-19 -25 53 0 c46 1 59 -4 100 -36 l47 -36 90 46 c89 47
91 47 188 47 l99 0 -9 23 c-12 32 -11 284 1 316 l10 26 -60 0 c-64 0 -154 33
-147 54 7 21 62 40 127 44 l65 4 -3 135 c-4 132 -3 136 21 162 13 14 30 37 37
50 11 22 11 23 -6 16 -41 -18 -78 -7 -117 35 -21 22 -39 40 -40 40 -1 -1 -13
-7 -27 -15z m-92 -94 c15 -10 39 -26 55 -35 l27 -16 0 -130 0 -130 -40 -25
c-53 -33 -73 -32 -118 9 l-37 34 0 143 0 142 40 13 c22 6 41 12 43 13 2 1 15
-7 30 -18z m67 -442 c18 -18 20 -33 20 -170 0 -165 -1 -169 -64 -169 -21 0
-55 13 -92 36 l-59 35 0 129 0 128 51 30 c50 29 53 29 88 15 20 -8 45 -23 56
-34z"/>
<path d="M1155 2150 c-137 -25 -212 -93 -240 -220 l-7 -32 29 22 c56 41 135
45 409 24 137 -10 281 -16 319 -13 39 3 73 4 78 2 4 -2 7 -204 7 -448 l0 -444
-30 -21 c-108 -77 -288 -105 -409 -65 -176 58 -273 307 -226 580 16 95 59 223
91 273 28 42 8 33 -49 -23 -118 -116 -188 -270 -209 -461 -10 -85 -9 -114 4
-181 33 -168 122 -295 251 -358 183 -89 393 -59 544 78 73 67 125 148 158 248
29 86 29 107 0 62 -23 -37 -66 -82 -87 -94 -17 -9 -18 14 -18 429 l0 438 34
16 c46 23 101 72 138 126 l31 45 -29 -7 c-79 -18 -207 -17 -384 3 -239 27
-343 32 -405 21z"/>
<path d="M2940 2028 c-63 -33 -114 -63 -113 -66 1 -4 9 -25 17 -47 12 -34 13
-107 4 -500 l-10 -460 -43 -40 c-24 -22 -46 -50 -50 -61 -5 -18 -2 -21 19 -17
40 8 92 -15 134 -61 l39 -42 36 31 c20 18 61 45 91 61 34 18 52 34 48 41 -4 6
-29 24 -57 40 l-50 29 0 238 0 238 45 39 c88 77 81 76 149 28 l61 -43 0 -306
0 -306 -26 -35 c-29 -39 -28 -78 6 -187 25 -79 25 -125 0 -180 l-19 -42 27 14
c94 49 106 152 28 248 -49 61 -59 90 -43 125 17 37 57 53 137 53 l70 0 -7 28
c-5 15 -7 156 -7 314 l1 287 36 41 c19 23 37 49 40 59 4 16 1 17 -28 8 -50
-15 -85 -1 -137 55 l-48 50 -135 -106 c-74 -58 -138 -106 -141 -106 -4 0 -4
104 0 231 5 191 10 244 27 303 11 39 23 79 25 89 3 9 2 17 -3 16 -4 0 -60 -27
-123 -61z"/>
<path d="M4677 1899 c-26 -21 -73 -46 -105 -56 -31 -9 -59 -18 -61 -20 -2 -1
4 -14 13 -28 12 -18 16 -42 14 -83 l-3 -57 -50 0 c-27 1 -58 4 -67 9 -15 7
-16 0 -16 -58 l1 -65 29 15 c16 8 46 14 66 12 l37 -3 3 -306 2 -306 -39 -26
c-35 -23 -91 -84 -91 -99 0 -4 18 -4 40 -1 50 7 115 -16 176 -63 24 -19 47
-34 50 -34 7 0 178 152 182 162 5 11 -6 10 -30 -3 -16 -9 -25 -6 -47 13 -14
14 -38 32 -53 41 l-28 17 0 294 c0 328 -1 323 68 313 20 -3 44 -8 54 -12 14
-5 17 2 20 52 2 32 4 59 3 59 0 1 -25 -3 -56 -9 -88 -16 -90 -14 -83 95 3 51
10 113 15 137 5 24 9 45 7 46 -2 1 -25 -15 -51 -36z"/>
<path d="M1435 1759 c-60 -39 -114 -75 -119 -80 -18 -17 3 -21 26 -5 12 9 26
16 30 16 5 0 8 -129 8 -287 -1 -214 -4 -298 -14 -325 -18 -51 -4 -50 70 5 40
29 69 61 89 98 l30 54 3 298 c2 163 -1 297 -5 297 -4 0 -57 -32 -118 -71z"/>
<path d="M2420 1617 c-62 -31 -118 -51 -160 -58 -117 -19 -113 -18 -98 -36 10
-13 13 -77 13 -294 l0 -279 -25 -17 c-40 -28 -80 -70 -80 -86 0 -10 15 -14 59
-14 64 0 123 -27 170 -77 l24 -26 66 63 c36 35 83 76 104 91 21 16 35 31 32
34 -3 3 -13 -2 -24 -12 -17 -16 -22 -15 -90 20 l-71 36 2 296 c3 273 4 297 20
300 12 2 21 -5 27 -21 5 -13 24 -36 41 -50 66 -56 176 -22 209 65 10 26 9 26
-24 21 -41 -7 -61 7 -84 57 l-16 35 -95 -48z"/>
<path d="M3743 1626 c-28 -24 -65 -49 -82 -56 -17 -7 -31 -20 -31 -29 0 -9 19
-39 41 -66 23 -28 60 -74 82 -103 l40 -52 -71 -68 c-89 -86 -122 -150 -122
-240 0 -43 6 -75 20 -101 25 -49 97 -113 166 -147 l54 -26 57 50 c32 27 69 62
82 76 33 35 47 33 70 -12 22 -42 78 -96 110 -107 22 -7 31 1 108 99 l33 41
-30 10 c-16 6 -40 20 -52 33 -23 22 -23 27 -26 291 l-3 268 38 39 38 39 -47 3
c-38 2 -52 9 -73 33 -14 17 -25 37 -25 45 0 22 -14 17 -51 -22 -49 -50 -118
-94 -149 -94 -39 0 -79 36 -104 91 l-21 48 -52 -43z m242 -134 l40 -28 3 -244
c2 -151 -1 -259 -8 -281 -19 -68 -94 -73 -180 -14 -88 61 -117 197 -64 303 14
29 30 52 34 52 5 0 34 -30 64 -66 76 -89 71 -66 -9 37 -108 140 -171 223 -178
235 -5 8 18 10 81 7 63 -3 98 0 127 10 51 20 44 21 90 -11z"/>
</g>
</svg>
